<svg width="78" height="76" viewBox="0 0 78 76" fill="none" xmlns="http://www.w3.org/2000/svg">
<path fill-rule="evenodd" clip-rule="evenodd" d="M72.2846 9.4129e-05H76.6945C77.0407 9.75911e-05 77.3727 0.137636 77.6175 0.382453C77.8624 0.627271 77.9999 0.959313 77.9999 1.30554V5.71539C78.009 9.0427 77.358 12.3388 76.0847 15.4128C74.8114 18.4869 72.941 21.2778 70.5819 23.6242C68.0655 26.1374 65.3025 28.3907 62.3346 30.3502V34.9303C62.3399 36.8585 61.9626 38.7685 61.2248 40.5499C60.4869 42.3312 59.4031 43.9486 58.036 45.3082C57.7911 45.5531 57.4591 45.6906 57.1128 45.6906C56.7666 45.6906 56.4345 45.5531 56.1897 45.3082L50.9679 40.0865C50.7231 39.8416 50.5856 39.5096 50.5856 39.1634V36.1813C50.3859 36.2511 50.186 36.3205 49.9855 36.3879L42.3706 44.0028C40.4103 45.9533 39.2164 48.5435 39.0068 51.301C40.0781 50.9504 41.2124 50.8351 42.3323 50.9629C43.4523 51.0908 44.5314 51.4587 45.4962 52.0417C46.4609 52.6246 47.2885 53.4089 47.9225 54.3409C48.5565 55.2729 48.9819 56.3308 49.1698 57.4422C49.18 57.4421 49.1902 57.4419 49.2004 57.4416C49.2071 57.4414 49.2138 57.4411 49.2205 57.4409C49.2403 57.4403 49.2602 57.4396 49.2802 57.4396C52.3951 57.4431 55.3815 58.6821 57.5841 60.8847C59.7867 63.0873 61.0256 66.0736 61.0291 69.1886H58.4183C58.4173 67.6925 58.0492 66.2196 57.3464 64.8989C56.6436 63.5782 55.6275 62.4502 54.3872 61.6136C53.1469 60.7771 51.7203 60.2576 50.2325 60.1008C48.7447 59.944 47.2411 60.1547 45.8537 60.7143L44.874 58.2941C45.426 58.0712 45.9943 57.8907 46.5738 57.7545C46.421 56.9638 46.0874 56.2191 45.5991 55.5788C45.1108 54.9384 44.481 54.4196 43.7589 54.0631C43.0368 53.7065 42.2421 53.5217 41.4367 53.5233C40.6314 53.5248 39.8374 53.7126 39.1167 54.0719C39.5004 56.4833 40.6398 58.7106 42.3706 60.4329L40.5243 62.279C37.856 59.6106 36.357 55.9915 36.357 52.2178C36.357 48.4442 37.856 44.8251 40.5243 42.1567L43.5176 39.1634L38.8428 34.4886C32.3391 41.1197 26.5295 48.3978 21.5046 56.2094L21.2716 56.5716C20.0745 58.4429 18.4247 59.982 16.4749 61.0465C14.5251 62.111 12.3383 62.6664 10.1169 62.6614V60.0505C11.901 60.0545 13.6573 59.6084 15.2232 58.7535C16.7892 57.8985 18.1141 56.6624 19.0755 55.1595L19.3085 54.7972C19.7181 54.1627 20.1324 53.5311 20.5514 52.9023C19.4242 51.8957 18.0298 51.2367 16.5365 51.005C15.0431 50.7733 13.5146 50.9786 12.1353 51.5963C10.7561 52.2141 9.58513 53.2177 8.76368 54.4862C7.94223 55.7547 7.50543 57.2338 7.50597 58.745H4.89509C4.8946 57.8692 5.00445 56.9968 5.22204 56.1485C5.1138 56.1396 5.00488 56.1342 4.89509 56.1342C4.33942 56.1344 3.79016 56.2528 3.28372 56.4814C2.77727 56.71 2.32521 57.0437 1.95752 57.4603L0 55.7327C0.762189 54.8692 1.73916 54.2226 2.83186 53.8584C3.92455 53.4942 5.09411 53.4254 6.22196 53.659C6.96932 52.3176 8.00347 51.1575 9.25066 50.2617C10.4979 49.3658 11.9274 48.7562 13.4372 48.4763C14.9471 48.1964 16.5001 48.2532 17.9856 48.6425C19.471 49.0318 20.8522 49.744 22.0307 50.7285C26.7487 43.9301 32.064 37.5664 37.9135 31.7131L41.6121 28.0145C41.6795 27.8139 41.7488 27.6141 41.8187 27.4144H38.8366C38.4904 27.4144 38.1583 27.2769 37.9135 27.032L32.6917 21.8103C32.4469 21.5654 32.3094 21.2334 32.3094 20.8872C32.3094 20.541 32.4469 20.2089 32.6917 19.9641C34.0514 18.597 35.6687 17.5131 37.4501 16.7752C39.2315 16.0374 41.1416 15.6602 43.0697 15.6654H47.6497C49.6092 12.6975 51.8625 9.93452 54.3757 7.41828C56.7221 5.05904 59.513 3.18862 62.5871 1.91528C65.6612 0.64195 68.9573 -0.00900696 72.2846 9.4129e-05ZM75.389 5.71539V2.61098H72.2846C70.2663 2.60943 68.2567 2.87545 66.3083 3.40209C66.5248 5.33542 67.3944 7.13701 68.7735 8.50914L69.4909 9.22656C70.863 10.6056 72.6646 11.4753 74.5979 11.6918C75.1245 9.74335 75.3906 7.73372 75.389 5.71539ZM35.5101 20.9362L39.3773 24.8035H42.8113C43.734 22.5569 44.8094 20.3761 46.0299 18.2763H43.0697C40.3191 18.2684 37.6497 19.2077 35.5101 20.9362ZM42.7529 30.5661L40.6828 32.6362L45.3638 37.3172L47.4339 35.2471L42.7529 30.5661ZM57.0637 42.4899C58.7923 40.3504 59.7316 37.6809 59.7237 34.9303V31.97C57.6239 33.1906 55.4431 34.266 53.1965 35.1887V38.6227L57.0637 42.4899ZM49.6292 33.7499C56.8164 31.2452 63.347 27.1533 68.7356 21.7782C70.9011 19.6195 72.6077 17.0451 73.7525 14.2098C71.437 13.8334 69.2995 12.7355 67.6446 11.0727L66.9272 10.3553C65.2645 8.70045 64.1666 6.56291 63.7901 4.2474C60.9549 5.3922 58.3806 7.09874 56.222 9.26434C50.8468 14.653 46.7548 21.1836 44.2502 28.3709L49.6292 33.7499ZM54.0666 13.0696C55.3547 12.2089 56.869 11.7495 58.4182 11.7495C60.4948 11.7519 62.4857 12.5779 63.9541 14.0463C65.4225 15.5147 66.2485 17.5056 66.2508 19.5822C66.2508 21.1314 65.7915 22.6457 64.9308 23.9338C64.0701 25.2219 62.8468 26.2258 61.4156 26.8186C59.9844 27.4115 58.4095 27.5666 56.8901 27.2644C55.3707 26.9621 53.9751 26.2161 52.8796 25.1207C51.7842 24.0253 51.0382 22.6297 50.736 21.1103C50.4338 19.5909 50.5889 18.016 51.1817 16.5848C51.7746 15.1535 52.7785 13.9302 54.0666 13.0696ZM55.5171 23.9239C56.3758 24.4977 57.3854 24.804 58.4182 24.804C59.8026 24.8024 61.1299 24.2518 62.1088 23.2728C63.0877 22.2939 63.6384 20.9666 63.6399 19.5822C63.6399 18.5494 63.3337 17.5399 62.7599 16.6811C62.1861 15.8224 61.3706 15.1531 60.4165 14.7579C59.4623 14.3627 58.4124 14.2593 57.3995 14.4608C56.3865 14.6622 55.4561 15.1596 54.7258 15.8899C53.9955 16.6201 53.4982 17.5506 53.2967 18.5635C53.0953 19.5764 53.1987 20.6263 53.5939 21.5805C53.9891 22.5346 54.6584 23.3502 55.5171 23.9239ZM40.2076 38.7814L38.6781 40.3108C37.3277 41.6582 36.2173 43.2264 35.3949 44.9478L33.0387 43.8231C33.9888 41.8339 35.2716 40.0217 36.832 38.4646L38.3616 36.9351L40.2076 38.7814ZM31.3444 49.4211L33.9286 49.7933C34.0469 48.9735 34.2252 48.1636 34.4619 47.3698L31.9604 46.6228C31.6869 47.5392 31.481 48.4745 31.3444 49.4211ZM8.84217 68.3431C7.6222 67.9057 6.31272 67.7778 5.03118 67.9711C3.74965 68.1644 2.53612 68.6728 1.49944 69.4506L3.0675 71.5381C3.8434 70.9565 4.76591 70.6024 5.7317 70.5155C6.69749 70.4285 7.66841 70.6122 8.5357 71.0459C9.40299 71.4797 10.1324 72.1463 10.6422 72.9711C11.152 73.796 11.4221 74.7465 11.4222 75.7162H14.0331C14.0331 74.5483 13.7715 73.3952 13.2675 72.3417C12.7635 71.2881 12.03 70.3608 11.1207 69.6278C12.02 68.2 13.4372 67.1758 15.0752 66.7698C16.7131 66.3639 18.4446 66.6079 19.9066 67.4505L21.214 65.1905C19.148 63.9988 16.6981 63.6615 14.3868 64.2504C12.0756 64.8394 10.0859 66.308 8.84217 68.3431ZM27.5225 64.989C29.1971 63.4891 31.3667 62.6603 33.6148 62.6619C35.0765 62.6627 36.5166 63.014 37.8146 63.6862C39.1125 64.3585 40.2303 65.332 41.0744 66.5254C41.9184 67.7187 42.4641 69.097 42.6656 70.5447C42.8671 71.9924 42.7187 73.4673 42.2326 74.8458L39.7709 73.9759C40.2524 72.6094 40.2658 71.1216 39.8089 69.7467C39.3521 68.3718 38.4509 67.1879 37.2474 66.3813C36.0438 65.5748 34.6062 65.1914 33.1608 65.2915C31.7155 65.3916 30.3445 65.9696 29.2636 66.9344L27.5225 64.989Z" fill="#2F387B"/>
</svg>
