<svg width="78" height="78" viewBox="0 0 78 78" fill="none" xmlns="http://www.w3.org/2000/svg">
<path fill-rule="evenodd" clip-rule="evenodd" d="M45.1192 5.58062L39.9192 0.38062C39.6754 0.136907 39.3447 0 39 0C38.6553 0 38.3246 0.136907 38.0808 0.38062L32.8808 5.58062L34.7192 7.41922L37.7 4.43836V12.9999H40.3V4.43836L43.2808 7.41922L45.1192 5.58062ZM32.5 11.6999H1.3C0.95522 11.6999 0.624561 11.8369 0.380765 12.0807C0.136968 12.3245 3.44775e-06 12.6551 0 12.9999V66.2999C3.44775e-06 66.6447 0.136968 66.9754 0.380765 67.2192C0.624561 67.463 0.95522 67.5999 1.3 67.5999H33.8V64.9999H29.9V41.5999H27.3V64.9999H2.6V37.6999H10.4V44.1999H13V36.3999C13 36.0551 12.863 35.7245 12.6192 35.4807C12.3754 35.2369 12.0448 35.0999 11.7 35.0999H2.6V22.0999H10.4V19.4999H2.6V14.2999H16.9V20.7999C16.9 21.1447 17.037 21.4754 17.2808 21.7192C17.5246 21.963 17.8552 22.0999 18.2 22.0999H24.7V19.4999H19.5V14.2999H31.2V24.6999H33.8V12.9999C33.8 12.6551 33.663 12.3245 33.4192 12.0807C33.1754 11.8369 32.8448 11.6999 32.5 11.6999ZM45.5 11.6999H76.7C77.0448 11.6999 77.3754 11.8369 77.6192 12.0807C77.863 12.3245 78 12.6551 78 12.9999V66.2999C78 66.6447 77.863 66.9754 77.6192 67.2192C77.3754 67.463 77.0448 67.5999 76.7 67.5999H44.2V64.9999H75.4V59.7999H45.5C45.1552 59.7999 44.8246 59.663 44.5808 59.4192C44.337 59.1754 44.2 58.8447 44.2 58.4999V48.0999H46.8V57.1999H75.4V50.6999H55.9V54.5999H53.3V49.3999C53.3 49.0551 53.437 48.7245 53.6808 48.4807C53.9246 48.2369 54.2552 48.0999 54.6 48.0999H75.4V42.8999H67.6V40.2999H75.4V14.2999H68.9V36.3999H66.3V14.2999H61.1V24.6999C61.1 25.0447 60.963 25.3754 60.7192 25.6192C60.4754 25.863 60.1448 25.9999 59.8 25.9999H52V35.0999H49.4V24.6999C49.4 24.3551 49.537 24.0245 49.7808 23.7807C50.0246 23.5369 50.3552 23.3999 50.7 23.3999H58.5V14.2999H45.5V11.6999ZM20.4192 51.6192C20.1754 51.863 19.8448 51.9999 19.5 51.9999H11.7V57.1999H20.8V59.7999H10.4C10.0552 59.7999 9.72456 59.663 9.48077 59.4192C9.23697 59.1754 9.1 58.8447 9.1 58.4999V50.6999C9.1 50.3551 9.23697 50.0245 9.48077 49.7807C9.72456 49.5369 10.0552 49.3999 10.4 49.3999H18.2V29.8999H7.8V27.2999H19.5C19.8448 27.2999 20.1754 27.4369 20.4192 27.6807C20.663 27.9245 20.8 28.2551 20.8 28.5999V33.7999H32.5V36.3999H20.8V50.6999C20.8 51.0447 20.663 51.3754 20.4192 51.6192ZM60.7192 41.2192C60.4754 41.463 60.1448 41.5999 59.8 41.5999H44.2V38.9999H58.5V31.1999H61.1V40.2999C61.1 40.6447 60.963 40.9754 60.7192 41.2192ZM40.3 77.9999V71.4999H37.7V77.9999H40.3ZM40.3 58.4999V53.2999H37.7V58.4999H40.3ZM40.3 44.1999V49.3999H37.7V44.1999H40.3ZM37.7 62.3999H40.3V67.5999H37.7V62.3999ZM40.3 35.0999H37.7V40.2999H40.3V35.0999ZM37.7 25.9999H40.3V31.1999H37.7V25.9999ZM40.3 16.8999H37.7V22.0999H40.3V16.8999Z" fill="#2F387B"/>
</svg>
