<svg width="78" height="78" viewBox="0 0 78 78" fill="none" xmlns="http://www.w3.org/2000/svg">
<path fill-rule="evenodd" clip-rule="evenodd" d="M71.4932 12.8681L77.9932 76.5681C78.0117 76.7489 77.992 76.9317 77.9354 77.1045C77.8789 77.2773 77.7867 77.4363 77.6648 77.5713C77.543 77.7062 77.3942 77.8141 77.228 77.888C77.0618 77.9618 76.882 78 76.7002 78H76.7H1.29998C1.11813 78 0.938303 77.9619 0.772118 77.888C0.605933 77.8142 0.457088 77.7063 0.335203 77.5714C0.213319 77.4364 0.121106 77.2774 0.0645244 77.1046C0.007943 76.9317 -0.0117481 76.749 0.00672384 76.5681L6.50672 12.8681C6.53939 12.5478 6.68974 12.251 6.92865 12.0352C7.16757 11.8195 7.47805 11.7 7.79998 11.7H10.4V10.4C10.3994 8.09388 11.1656 5.85302 12.5779 4.02994C13.9902 2.20686 15.9685 0.905042 18.2016 0.329278C20.4347 -0.246486 22.7958 -0.0635166 24.9135 0.849402C27.0313 1.76232 28.7854 3.35338 29.9 5.37227C30.7979 3.74494 32.1157 2.38816 33.7163 1.44328C35.3168 0.498406 37.1414 5.65749e-06 39 5.65749e-06C40.8586 5.65749e-06 42.6832 0.498406 44.2837 1.44328C45.8842 2.38816 47.2021 3.74494 48.1 5.37227C49.2146 3.35338 50.9687 1.76232 53.0864 0.849402C55.2042 -0.0635166 57.5653 -0.246486 59.7984 0.329278C62.0315 0.905042 64.0098 2.20686 65.4221 4.02994C66.8344 5.85302 67.6005 8.09388 67.6 10.4V11.7H70.2C70.5219 11.7 70.8324 11.8195 71.0713 12.0352C71.3102 12.251 71.4606 12.5478 71.4932 12.8681ZM68.446 67.9129L75.0765 73.5962L69.0259 14.3H66.1741L60.7353 67.6H67.6C67.9103 67.5998 68.2105 67.7108 68.446 67.9129ZM64.0857 70.2H60.47L60.1234 73.5962L64.0857 70.2ZM73.1857 75.4L67.6 70.6122L62.0143 75.4H73.1857ZM62.7128 4.88716C61.2506 3.42488 59.268 2.60234 57.2 2.60001C55.132 2.60234 53.1494 3.42488 51.6871 4.88716C50.2249 6.34943 49.4023 8.33204 49.4 10.4V15.6C49.4023 17.4427 50.056 19.2253 51.2454 20.6328C52.4348 22.0403 54.0834 22.9821 55.9 23.2917V20.6355C54.7845 20.3458 53.7965 19.6944 53.0908 18.7832C52.3851 17.872 52.0014 16.7525 52 15.6V10.4C52 9.02088 52.5478 7.69824 53.523 6.72305C54.4982 5.74786 55.8209 5.20001 57.2 5.20001C58.5791 5.20001 59.9017 5.74786 60.8769 6.72305C61.8521 7.69824 62.4 9.02088 62.4 10.4V11.7H65V10.4C64.9976 8.33204 64.1751 6.34943 62.7128 4.88716ZM54.6 10.4V11.7H59.8V10.4C59.8 9.71044 59.5261 9.04912 59.0385 8.56153C58.5509 8.07393 57.8895 7.80001 57.2 7.80001C56.5104 7.80001 55.8491 8.07393 55.3615 8.56153C54.8739 9.04912 54.6 9.71044 54.6 10.4ZM44.5128 4.88716C43.0506 3.42488 41.068 2.60234 39 2.60001C36.932 2.60234 34.9494 3.42488 33.4871 4.88716C32.0249 6.34943 31.2023 8.33204 31.2 10.4V15.6C31.2023 17.4427 31.856 19.2253 33.0454 20.6328C34.2348 22.0403 35.8834 22.9821 37.7 23.2917V20.6355C36.5845 20.3458 35.5965 19.6944 34.8908 18.7832C34.1851 17.872 33.8014 16.7525 33.8 15.6V10.4C33.8 9.02088 34.3478 7.69824 35.323 6.72305C36.2982 5.74786 37.6209 5.20001 39 5.20001C40.3791 5.20001 41.7017 5.74786 42.6769 6.72305C43.6521 7.69824 44.2 9.02088 44.2 10.4V11.7H46.8V10.4C46.7976 8.33204 45.9751 6.34943 44.5128 4.88716ZM36.4 10.4V11.7H41.6V10.4C41.6 9.71044 41.3261 9.04912 40.8385 8.56153C40.3509 8.07393 39.6895 7.80001 39 7.80001C38.3104 7.80001 37.6491 8.07393 37.1615 8.56153C36.6739 9.04912 36.4 9.71044 36.4 10.4ZM15.2845 4.88457C13.8218 6.34736 13 8.33132 13 10.4V15.6C13.0023 17.4427 13.656 19.2253 14.8454 20.6328C16.0348 22.0403 17.6834 22.9821 19.5 23.2917V20.6355C18.3845 20.3458 17.3965 19.6944 16.6908 18.7832C15.9851 17.872 15.6014 16.7525 15.6 15.6V10.4C15.6 9.02088 16.1478 7.69824 17.123 6.72305C18.0982 5.74786 19.4209 5.20001 20.8 5.20001C22.1791 5.20001 23.5017 5.74786 24.4769 6.72305C25.4521 7.69824 26 9.02088 26 10.4V11.7H28.6V10.4C28.6 8.33132 27.7782 6.34736 26.3154 4.88457C24.8526 3.42179 22.8687 2.60001 20.8 2.60001C18.7313 2.60001 16.7473 3.42179 15.2845 4.88457ZM18.2 10.4V11.7H23.4V10.4C23.4 9.71044 23.1261 9.04912 22.6385 8.56153C22.1509 8.07393 21.4895 7.80001 20.8 7.80001C20.1104 7.80001 19.4491 8.07393 18.9615 8.56153C18.4739 9.04912 18.2 9.71044 18.2 10.4ZM8.97406 14.3L2.73939 75.4H57.3259L63.5606 14.3H54.6V15.6C54.6008 16.2893 54.875 16.9502 55.3624 17.4376C55.8498 17.925 56.5107 18.1992 57.2 18.2C57.3707 18.2 57.5397 18.2336 57.6975 18.299C57.8552 18.3643 57.9985 18.46 58.1192 18.5808C58.2399 18.7015 58.3357 18.8448 58.401 19.0025C58.4664 19.1602 58.5 19.3293 58.5 19.5V24.7C58.5 24.8707 58.4664 25.0398 58.401 25.1975C58.3357 25.3552 58.2399 25.4985 58.1192 25.6193C57.9985 25.74 57.8552 25.8357 57.6975 25.9011C57.5397 25.9664 57.3707 26 57.2 26C54.4427 25.9969 51.7992 24.9002 49.8495 22.9505C47.8998 21.0008 46.8031 18.3573 46.8 15.6V14.3H36.4V15.6C36.4008 16.2893 36.6749 16.9502 37.1624 17.4376C37.6498 17.925 38.3107 18.1992 39 18.2C39.1707 18.2 39.3397 18.2336 39.4975 18.299C39.6552 18.3643 39.7985 18.46 39.9192 18.5808C40.0399 18.7015 40.1357 18.8448 40.201 19.0025C40.2664 19.1602 40.3 19.3293 40.3 19.5V24.7C40.3 24.8707 40.2664 25.0398 40.201 25.1975C40.1357 25.3552 40.0399 25.4985 39.9192 25.6193C39.7985 25.74 39.6552 25.8357 39.4975 25.9011C39.3397 25.9664 39.1707 26 39 26C36.2427 25.9969 33.5992 24.9002 31.6495 22.9505C29.6998 21.0008 28.6031 18.3573 28.6 15.6V14.3H18.2V15.6C18.2008 16.2893 18.4749 16.9502 18.9624 17.4376C19.4498 17.925 20.1107 18.1992 20.8 18.2C20.9707 18.2 21.1397 18.2336 21.2975 18.299C21.4552 18.3643 21.5985 18.46 21.7192 18.5808C21.8399 18.7015 21.9357 18.8448 22.001 19.0025C22.0664 19.1602 22.1 19.3293 22.1 19.5V24.7C22.1 24.8707 22.0664 25.0398 22.001 25.1975C21.9357 25.3552 21.8399 25.4985 21.7192 25.6193C21.5985 25.74 21.4552 25.8357 21.2975 25.9011C21.1397 25.9664 20.9707 26 20.8 26C18.0427 25.9969 15.3992 24.9002 13.4495 22.9505C11.4998 21.0008 10.4031 18.3573 10.4 15.6V14.3H8.97406ZM28.6 28.6H39C39.1707 28.6 39.3398 28.6336 39.4975 28.6989C39.6552 28.7643 39.7985 28.86 39.9193 28.9808C40.04 29.1015 40.1357 29.2448 40.2011 29.4025C40.2664 29.5602 40.3 29.7293 40.3 29.9V40.3C40.3 40.4707 40.2664 40.6398 40.2011 40.7975C40.1357 40.9552 40.04 41.0985 39.9193 41.2192C39.7985 41.34 39.6552 41.4357 39.4975 41.501C39.3398 41.5664 39.1707 41.6 39 41.6H28.6C28.4293 41.6 28.2602 41.5664 28.1025 41.501C27.9448 41.4357 27.8015 41.34 27.6808 41.2192C27.56 41.0985 27.4643 40.9552 27.399 40.7975C27.3336 40.6398 27.3 40.4707 27.3 40.3V29.9C27.3 29.7293 27.3336 29.5602 27.399 29.4025C27.4643 29.2448 27.56 29.1015 27.6808 28.9808C27.8015 28.86 27.9448 28.7643 28.1025 28.6989C28.2602 28.6336 28.4293 28.6 28.6 28.6ZM29.9 39H37.7V31.2H29.9V39ZM54.6 28.6H44.2C44.0293 28.6 43.8602 28.6336 43.7025 28.6989C43.5448 28.7643 43.4015 28.86 43.2808 28.9808C43.16 29.1015 43.0643 29.2448 42.999 29.4025C42.9336 29.5602 42.9 29.7293 42.9 29.9V40.3C42.9 40.4707 42.9336 40.6398 42.999 40.7975C43.0643 40.9552 43.16 41.0985 43.2808 41.2192C43.4015 41.34 43.5448 41.4357 43.7025 41.501C43.8602 41.5664 44.0293 41.6 44.2 41.6H54.6C54.7707 41.6 54.9398 41.5664 55.0975 41.501C55.2552 41.4357 55.3985 41.34 55.5193 41.2192C55.64 41.0985 55.7357 40.9552 55.8011 40.7975C55.8664 40.6398 55.9 40.4707 55.9 40.3V29.9C55.9 29.7293 55.8664 29.5602 55.8011 29.4025C55.7357 29.2448 55.64 29.1015 55.5193 28.9808C55.3985 28.86 55.2552 28.7643 55.0975 28.6989C54.9398 28.6336 54.7707 28.6 54.6 28.6ZM53.3 39H45.5V31.2H53.3V39ZM10.4 44.2H20.8C20.9707 44.2 21.1398 44.2336 21.2975 44.299C21.4552 44.3643 21.5985 44.46 21.7193 44.5807C21.84 44.7015 21.9357 44.8448 22.0011 45.0025C22.0664 45.1602 22.1 45.3293 22.1 45.5V55.9C22.1 56.0707 22.0664 56.2398 22.0011 56.3975C21.9357 56.5552 21.84 56.6985 21.7193 56.8192C21.5985 56.94 21.4552 57.0357 21.2975 57.1011C21.1398 57.1664 20.9707 57.2 20.8 57.2H10.4C10.2293 57.2 10.0602 57.1664 9.90252 57.1011C9.7448 57.0357 9.60148 56.94 9.48077 56.8192C9.36005 56.6985 9.26429 56.5552 9.19896 56.3975C9.13363 56.2398 9.10001 56.0707 9.10002 55.9V45.5C9.10001 45.3293 9.13363 45.1602 9.19896 45.0025C9.26429 44.8448 9.36005 44.7015 9.48077 44.5807C9.60148 44.46 9.7448 44.3643 9.90252 44.299C10.0602 44.2336 10.2293 44.2 10.4 44.2ZM11.7 54.6H19.5V46.8H11.7V54.6ZM36.4 44.2H26C25.8293 44.2 25.6602 44.2336 25.5025 44.299C25.3448 44.3643 25.2015 44.46 25.0808 44.5807C24.96 44.7015 24.8643 44.8448 24.799 45.0025C24.7336 45.1602 24.7 45.3293 24.7 45.5V55.9C24.7 56.0707 24.7336 56.2398 24.799 56.3975C24.8643 56.5552 24.96 56.6985 25.0808 56.8192C25.2015 56.94 25.3448 57.0357 25.5025 57.1011C25.6602 57.1664 25.8293 57.2 26 57.2H36.4C36.5707 57.2 36.7398 57.1664 36.8975 57.1011C37.0552 57.0357 37.1985 56.94 37.3193 56.8192C37.44 56.6985 37.5357 56.5552 37.6011 56.3975C37.6664 56.2398 37.7 56.0707 37.7 55.9V45.5C37.7 45.3293 37.6664 45.1602 37.6011 45.0025C37.5357 44.8448 37.44 44.7015 37.3193 44.5807C37.1985 44.46 37.0552 44.3643 36.8975 44.299C36.7398 44.2336 36.5707 44.2 36.4 44.2ZM35.1 54.6H27.3V46.8H35.1V54.6ZM9.10002 59.8H19.5C19.6707 59.8 19.8398 59.8336 19.9975 59.8989C20.1552 59.9643 20.2985 60.06 20.4193 60.1807C20.54 60.3015 20.6357 60.4448 20.7011 60.6025C20.7664 60.7602 20.8 60.9293 20.8 61.1V71.5C20.8 71.6707 20.7664 71.8398 20.7011 71.9975C20.6357 72.1552 20.54 72.2985 20.4193 72.4193C20.2985 72.54 20.1552 72.6357 19.9975 72.701C19.8398 72.7664 19.6707 72.8 19.5 72.8H9.10002C8.9293 72.8 8.76025 72.7664 8.60252 72.701C8.4448 72.6357 8.30148 72.54 8.18077 72.4193C8.06005 72.2985 7.96429 72.1552 7.89896 71.9975C7.83363 71.8398 7.80001 71.6707 7.80002 71.5V61.1C7.80001 60.9293 7.83363 60.7602 7.89896 60.6025C7.96429 60.4448 8.06005 60.3015 8.18077 60.1807C8.30148 60.06 8.4448 59.9643 8.60252 59.8989C8.76025 59.8336 8.9293 59.8 9.10002 59.8ZM10.4 70.2H18.2V62.4H10.4V70.2ZM35.1 59.8H24.7C24.5293 59.8 24.3602 59.8336 24.2025 59.8989C24.0448 59.9643 23.9015 60.06 23.7808 60.1807C23.66 60.3015 23.5643 60.4448 23.499 60.6025C23.4336 60.7602 23.4 60.9293 23.4 61.1V71.5C23.4 71.6707 23.4336 71.8398 23.499 71.9975C23.5643 72.1552 23.66 72.2985 23.7808 72.4193C23.9015 72.54 24.0448 72.6357 24.2025 72.701C24.3602 72.7664 24.5293 72.8 24.7 72.8H35.1C35.2707 72.8 35.4398 72.7664 35.5975 72.701C35.7552 72.6357 35.8985 72.54 36.0193 72.4193C36.14 72.2985 36.2357 72.1552 36.3011 71.9975C36.3664 71.8398 36.4 71.6707 36.4 71.5V61.1C36.4 60.9293 36.3664 60.7602 36.3011 60.6025C36.2357 60.4448 36.14 60.3015 36.0193 60.1807C35.8985 60.06 35.7552 59.9643 35.5975 59.8989C35.4398 59.8336 35.2707 59.8 35.1 59.8ZM26 70.2V62.4H33.8V70.2H26ZM46.8 48.8616L51.0808 44.5807L52.9193 46.4192L48.6384 50.7L52.9193 54.9807L51.0808 56.8192L46.8 52.5383L42.5193 56.8192L40.6808 54.9807L44.9617 50.7L40.6808 46.4192L42.5193 44.5807L46.8 48.8616Z" fill="#2F387B"/>
</svg>
