<svg width="30" height="30" viewBox="0 0 30 30" fill="none" xmlns="http://www.w3.org/2000/svg">
<path fill-rule="evenodd" clip-rule="evenodd" d="M4.39374 4.39476C7.22624 1.56098 10.9931 0 15 0C19.0068 0 22.7731 1.56098 25.6062 4.39476C28.4393 7.22791 30 10.9956 30 15.0034C30 19.0112 28.4393 22.779 25.6062 25.6127C22.6825 28.5378 18.8412 30 15 30C11.1587 30 7.31811 28.5378 4.39374 25.6127C1.56062 22.779 0 19.0112 0 15.0034C0 10.9956 1.56062 7.22853 4.39374 4.39476ZM6.16124 23.8448C11.035 28.7197 18.965 28.7197 23.8387 23.8448C26.1993 21.483 27.5 18.343 27.5 15.0034C27.5 11.6639 26.1993 8.52383 23.8387 6.16266C21.4781 3.8015 18.3387 2.50057 15 2.50057C11.6612 2.50057 8.52186 3.8015 6.16124 6.16266C3.80062 8.52383 2.5 11.6639 2.5 15.0034C2.5 18.343 3.80062 21.483 6.16124 23.8448ZM15.8637 16.1251C17.0816 14.9068 19.0633 14.9075 20.2825 16.1245L22.3472 18.1915C22.7671 18.6116 22.9609 19.1898 22.8784 19.7779C22.7959 20.3655 22.4516 20.8681 21.9329 21.1562L19.3588 22.5857C18.977 22.7982 18.5596 22.9039 18.1434 22.9039C17.6466 22.9039 17.1516 22.7539 16.7223 22.4563L14.8863 21.1837C14.4707 20.8981 14.0745 20.6037 13.6815 20.2861C13.6746 20.2811 13.6683 20.2761 13.6615 20.2705C12.2916 19.1854 11.0368 17.9303 9.94319 16.5489C9.62261 16.1526 9.32578 15.7538 9.03519 15.3294L7.76723 13.4992C7.22105 12.7097 7.17106 11.699 7.63725 10.8602L9.06643 8.28679C9.35452 7.76737 9.85696 7.42296 10.4444 7.34045C11.0324 7.25669 11.6105 7.45171 12.0304 7.87175L14.0964 9.93758C15.3137 11.1565 15.3137 13.1385 14.097 14.3574L12.6116 15.8432C13.1634 16.4676 13.7539 17.0583 14.3782 17.6102L15.8637 16.1251ZM11.0587 13.8599L12.3291 12.5897C12.5722 12.3459 12.5722 11.9484 12.3285 11.7053L10.8493 10.2257L9.82196 12.0747L11.0587 13.8599ZM16.3611 19.1641L18.1459 20.4011L19.9944 19.3735L18.5152 17.8934C18.2709 17.6496 17.8753 17.6502 17.6309 17.894L16.3611 19.1641Z" fill="#2F387B"/>
</svg>
